<?xml version="1.0" encoding="utf-8"?>
<!-- Generator: Adobe Illustrator 24.1.2, SVG Export Plug-In . SVG Version: 6.00 Build 0)  -->
<svg version="1.1" id="Layer_1" xmlns="http://www.w3.org/2000/svg" xmlns:xlink="http://www.w3.org/1999/xlink" x="0px" y="0px"
	 viewBox="0 0 547 533.3" style="enable-background:new 0 0 547 533.3;" xml:space="preserve">
<style type="text/css">
	.st0{fill:#FF26BE;}
	.st1{fill:#2E001F;}
	.st2{fill:#FFD9F2;}
</style>
<path class="st0" d="M450.1,533.3H96.9C43.3,533.3,0,490,0,436.5V96.9C0,43.3,43.3,0,96.9,0h353.3C503.7,0,547,43.3,547,96.9v339.6
	C547,490,503.7,533.3,450.1,533.3z"/>
<path class="st1" d="M441.5,510.5h-336c-45.6,0-82.7-37.2-82.7-82.7V105.5c0-45.6,37.2-82.7,82.7-82.7h335.7
	c45.8,0,82.7,37.2,82.7,82.7v322.1C524.2,473.4,487.1,510.5,441.5,510.5L441.5,510.5z"/>
<path class="st2" d="M216.3,249.6l63.8,122.6c1.1,1.8,0.5,3.6-1.4,3.6h-39.7c-2.5,0-3.6-0.7-4.8-3c-14.6-30.1-29.4-60.2-44.7-92.5
	h-0.5c-13.7,30.5-28.7,62.7-43.3,92.8c-1.1,1.8-2.3,2.5-4.1,2.5h-37.6c-2.3,0-2.5-1.8-1.4-3.2l62.5-119l-60.4-120.3
	c-1.4-1.8,0-3.2,1.4-3.2h39.2c2.3,0,3.2,0.5,4.1,2.5c14.4,30.1,28.9,61.1,42.6,91.4h0.5c13.2-30.1,27.8-61.3,41.9-91.2
	c1.1-1.8,1.8-3,4.1-3h36.7c1.8,0,2.5,1.4,1.4,3.2L216.3,249.6z M291.3,286.7c0-53.1,35.3-94.6,91.4-94.6c4.8,0,7.3,0,11.9,0.5v-60.4
	c0-1.4,1.1-2.3,2.3-2.3h36c1.8,0,2.3,0.7,2.3,1.8V341c0,6.2,0,13.9,1.1,22.3c0,1.4-0.5,1.8-1.8,2.5c-19.1,9.1-39.2,13.2-58.3,13.2
	C326.6,379.3,291.3,348.7,291.3,286.7L291.3,286.7z M394.5,228.4c-3.2-1.4-7.7-2.3-13.2-2.3c-28.7,0-48.8,22.1-48.8,58.8
	c0,41.9,20.5,58.8,46.3,58.8c5.5,0,11.4-0.7,15.7-2.5V228.4z"/>
</svg>
