<?xml version="1.0" encoding="utf-8"?>
<!-- Generator: Adobe Illustrator 24.0.3, SVG Export Plug-In . SVG Version: 6.00 Build 0)  -->
<svg version="1.1" id="Layer_1" xmlns="http://www.w3.org/2000/svg" xmlns:xlink="http://www.w3.org/1999/xlink" x="0px" y="0px"
	 viewBox="0 0 1024 1024" style="enable-background:new 0 0 1024 1024;" xml:space="preserve">
<style type="text/css">
	.st0{fill:#262626;}
</style>
<g id="github">
	<path class="st0" d="M509.5,220.65c-162.91,0-295,132.09-295,295c0,130.36,84.52,240.91,201.75,279.91
		c14.75,2.7,20.13-6.41,20.13-14.19c0-7.02-0.27-30.28-0.41-54.92c-82.03,17.82-99.37-34.79-99.37-34.79
		c-13.43-34.07-32.75-43.14-32.75-43.14c-26.81-18.29,2.03-17.93,2.03-17.93c29.62,2.05,45.21,30.39,45.21,30.39
		c26.32,45.09,69.07,32.05,85.85,24.49c2.68-19.01,10.31-32.05,18.73-39.4c-65.49-7.45-134.37-32.77-134.37-145.81
		c0-32.23,11.51-58.52,30.34-79.17c-3.01-7.49-13.16-37.5,2.92-78.11c0,0,24.74-7.92,81.13,30.25c23.51-6.57,48.74-9.81,73.82-9.92
		c25.06,0.11,50.31,3.38,73.86,9.96c56.29-38.21,81.06-30.25,81.06-30.25c16.13,40.64,5.98,70.62,2.95,78.07
		c18.91,20.65,30.32,46.94,30.32,79.17c0,113.33-69,138.28-134.72,145.59c10.62,9.15,20.02,27.08,20.02,54.59
		c0,39.43-0.4,71.23-0.4,80.95c0,7.85,5.37,17.03,20.31,14.15C720.05,756.49,804.5,645.94,804.5,515.65
		C804.5,352.74,672.41,220.65,509.5,220.65z"/>
</g>
<g id="Background">
	<path class="st0" d="M983.77,312.73C957.98,251.75,921.07,197,874.06,149.98C827.05,102.97,772.3,66.05,711.33,40.26
		C648.19,13.55,581.14,0,512,0c-69.1,0-136.15,13.54-199.29,40.24c-60.97,25.79-115.72,62.7-162.74,109.71
		S66.05,251.71,40.26,312.68C13.55,375.81,0,442.86,0,511.97c0,69.11,13.53,136.17,40.23,199.3
		c25.78,60.97,62.7,115.73,109.71,162.74c47.01,47.02,101.76,83.93,162.73,109.73C375.81,1010.45,442.86,1024,512,1024h0.01
		c69.1,0,136.15-13.54,199.29-40.24c60.97-25.79,115.72-62.7,162.73-109.71c47.01-47.01,83.93-101.76,109.72-162.73
		c26.71-63.13,40.25-130.19,40.26-199.29C1024,442.92,1010.47,375.87,983.77,312.73z M512,976.33h-0.03
		c-124.03-0.01-240.63-48.31-328.32-136.02C95.96,752.6,47.67,636,47.67,511.97c0.01-256.02,208.31-464.3,464.36-464.3
		c124.03,0.01,240.63,48.31,328.32,136.02C928.04,271.4,976.33,388,976.33,512.03C976.31,768.04,768.02,976.33,512,976.33z"/>
</g>
</svg>
